<svg width="90" height="90" viewBox="0 0 90 90" fill="none" xmlns="http://www.w3.org/2000/svg">
<g clip-path="url(#clip0_283_279)">
<path d="M154.808 88.4494H154.441V85.1298L153.798 68.2551L152.606 53.4091L145.176 44.0036L136.37 36.4423L129.123 32.7538L124.812 30.4485L112.887 30.8174L96.1918 32.7538L90.3211 32.6616L78.8548 28.3277L78.3044 27.9588L77.9375 26.0224L73.3509 20.2131L69.7735 18L67.8471 20.1209L66.2877 21.4118L62.8019 22.1495L48.7672 25.5613L46.3822 27.4056L44.3641 29.4342L43.6303 31.3706L42.2543 33.5837L40.9701 37.3644L40.2363 44.0036L37.943 51.0116L36.6588 57.1898L35.8332 61.4315L31.7971 62.3536L26.0181 63.0913L24 62.538V63.5524L25.5594 64.6589L30.8798 65.0278L35.4663 64.2901L34.549 72.4969L36.2919 80.5193L41.4288 86.974L48.4003 85.4987L50.7853 80.8881L50.3266 75.8165L47.5747 72.0358L44.2724 72.4047H41.7957L41.8874 75.2632L44.089 78.675L44.8228 78.3984L44.5476 77.2919L45.7401 75.171L47.0243 75.8165L46.107 79.966L43.722 80.2426L41.337 76.8308L41.4288 70.6526L42.0709 65.0278L42.8965 62.2614L44.2724 61.7081L46.3822 60.5094L47.483 60.6938L49.5928 60.2328L53.5372 56.8209L55.3718 56.0833L57.3899 62.8147L59.2245 71.9436L60.2335 77.3841L59.5914 85.0376L58.2154 97.3017L57.2064 107.261L54.7297 112.424L54.9131 115.467L59.7748 116.113H60.1418L59.9583 116.482L60.5087 120.355L65.4621 121L77.2953 119.801L77.0202 114.637L75.4607 110.119L74.7269 97.3017L75.8277 88.3572L75.9194 84.1155L77.2036 79.3205L91.1466 84.8532L102.888 87.4351L116.097 86.1441L115.363 96.8406L114.171 107.353L112.978 111.502L111.969 113.808L112.887 116.205H113.07L113.529 116.297L117.29 116.943L128.664 116.482L128.848 114.822L127.013 108.367L127.105 103.941L129.031 96.2874L130.682 94.1665L134.352 104.31L134.994 112.24L133.618 115.652L130.958 118.326L131.6 120.447L133.71 120.723H135.911L136.828 120.631H139.305L142.149 120.539L143.983 120.447L148.478 119.248L148.937 117.035L147.102 113.531L145.634 104.586L145.176 97.9472L146.644 95.4575L148.295 90.8469L147.194 79.7816L147.653 73.6034L150.588 63.4602L151.047 62.077L152.606 80.9803L153.34 88.6338H152.698L152.147 93.7977L153.156 98.316L152.606 100.99L151.689 102.097L154.257 100.345L155.725 97.1173L156 91.4002L154.808 88.4494Z" fill="white"/>
<g clip-path="url(#clip1_283_279)">
<path d="M32.3408 45.8943L31.8134 45.4349V45.3693L31.4179 44.9755V45.1068L29.2425 43.5973L27.067 41.6941L26.5397 41.1034L25.2872 39.594L25.4849 39.5284L26.8034 38.8065L26.0123 37.6908L25.5508 37.2314L24.8257 36.5095L23.705 36.4438L23.9028 35.5907L23.9687 35.1969L23.705 35L22.4525 36.3782H22.3866L20.9363 36.5751L17.838 37.0345H17.7061L17.4425 37.1001L17.1788 37.1657L16.9151 37.2314L16.8492 37.297L16.5196 37.5595L15.5307 38.5439L15.3989 38.6752L15.0693 38.9377L14.9374 39.069L14.476 39.5284L12.2346 43.4661L12.1028 43.7286L10.4547 46.6819L8.54302 50.4883V50.7508L7.02682 51.7353L4.12626 52.8509C4.12626 52.8509 4.12626 52.8509 4.06033 52.8509C3.79665 52.8509 2.28045 52.8509 0.698325 52.8509H0.632404C0.566482 52.8509 0.500559 52.8509 0.368716 52.8509C0.302794 52.8509 0.170949 52.8509 0.105028 52.8509C0.0391058 52.8509 -0.0268155 52.8509 -0.0927373 52.8509C-1.54302 52.8509 -2.79553 52.8509 -2.92737 52.8509C-3.19106 52.8509 -6.22346 52.129 -6.22346 52.129L-11.695 50.2258L-16.0458 50.3571L-20.8581 54.2291V54.2948H-22.7039L-24.5497 57.7075L-25.4067 64.4672L-25.0112 69.1924L-25.4067 71.8176L-26 73.7864C-26 73.7864 -24.352 76.2147 -24.352 76.4116C-24.352 76.6085 -23.9564 81.3993 -23.9564 81.5962C-23.9564 81.7275 -24.4838 83.4994 -24.4838 83.4994L-25.0112 84.0901V84.5495L-24.1542 84.0901L-23.495 85.337L-23.3631 86.8465L-22.7039 88.356L-22.3743 88.1591L-22.7698 86.9121L-22.3084 85.1402L-20.924 82.1212L-20.7263 80.6774L-20.4626 81.6618L-20.3966 85.5339L-20.0011 88.5528L-19.5397 89.2091L-18.8145 90.9811L-19.3419 92.2937L-17.2983 93.0156L-14.4637 93.7375L-13.9363 93.4093L-14.5296 91.178L-14.7274 90.8498L-14.9911 90.4561L-16.5073 89.5373L-17.8916 84.0901L-18.5508 79.8243L-17.2324 77.7898L-17.1665 77.6585L-16.1777 79.3648L-15.057 84.7464L-15.4525 86.584L-14.3978 87.7653L-14.3318 88.6841L-14.8592 89.5373V89.9967V90.5873L-13.2112 91.2436L-10.1788 91.5717L-9.84916 91.3092L-10.5743 89.2091V89.1435L-11.0358 88.6841L-11.2335 88.1591L-12.6179 86.7809L-13.343 83.1057L-14.2659 78.5773C-14.2659 78.5773 -14.0682 77.3304 -13.9363 77.1991C-13.8045 77.0679 -12.0905 72.8676 -12.0905 72.8676L-10.1128 70.2425L-7.34413 68.2736L-2.59776 70.1769L3.86257 70.7019L7.2905 71.03L9.86145 71.4238L10.6525 73.1958L10.7844 78.1835L9.9933 82.9088V83.5651L9.92738 87.8965L10.4547 89.1435L10.7844 89.8654L10.6525 90.7842L12.6961 91.2436L13.8827 91.1123L14.8056 91.9655L14.6078 93.5406L15.6626 93.9344L19.7497 93.5406L18.8268 91.5061L17.4425 90.1279L16.9151 86.8465L16.981 83.3026L17.0469 80.5462L17.5743 76.2803L18.1017 71.7519L21.2 68.2736L21.3978 64.7297V64.5984L23.6391 56.8543L24.2983 50.6196L24.1665 48.8476H24.2983L24.3642 48.9789L24.8257 48.9132L24.7598 48.782L25.2212 48.7164L28.5173 49.6351L28.8469 49.832L28.781 49.8977L29.1765 50.1602L29.2425 50.0945L29.5721 50.2914L30.7587 50.7508L32.6704 49.5695L32.8682 46.9444L32.3408 45.8943ZM14.0145 83.8276L13.8168 89.1435L12.6302 88.356L12.4983 86.6496L12.5642 85.2058L12.6302 82.1869L13.3553 77.921L13.5531 75.6897L14.0145 78.3804V83.1057V83.8276Z" fill="white"/>
</g>
<g clip-path="url(#clip2_283_279)">
<path d="M38.9 34.4L38.8 32L38.4 28.5L37.6 26.5L36.9 24.7L35.5 22.5L34.4 21.9L33.5 21.4L32.3 20.3L31.3 19.2L31.5 19.1L31.8 18.9L32.2 18.6L32.9 18L33.5 17.6L34 16.8L34.5 16.6H34.7L34.6 16.4L34 16.3L33.9 16.2L33.7 15.8L32.7 15.2L31.1 14.7H30L29.1 15L28.8 15.1C28.8 15.1 28.6 15.1 28.4 15C28.1 14.9 27.8 14.8 27.6 14.8C27.6 14.8 27.6 14.8 27.5 14.8C27.4 14.8 26.7 14.4 26.7 14.4L25.8 13L25 12.6L24.7 12.5L21.8 11.3L20.7 10.9L16.3 9.2L12.8 8L12.7 8.2L12.5 8.4L12.7 8.7L13.3 9.1L13.2 9.4L13.5 9.8L14.1 10.2L14.5 10.3L15 10.8L16 11.4L16.1 11.5L16.4 11.7L17 12.2V12.4L17.3 12.6L17.5 12.8L18 13.1L18.4 13.3V13.7L18.6 14H18.7H18.8L18.9 14.2L19.1 14.6L19 14.7L18.9 14.9V15L19 15.4L19.2 15.7L19.4 16.1L19.3 16.8C19.3 16.8 19.3 16.8 19.3 16.9C19.3 17.1 19.2 17.5 19.2 17.6C19.2 17.7 19.3 17.7 19.3 17.8H19.4V18.1C19.4 18.1 19.4 18.1 19.4 18.2C19.4 18.4 19.4 18.8 19.5 18.9C19.5 18.9 19.5 18.9 19.5 19C19.5 19 19.5 19 19.5 19.1V19.2V19.3C19.5 19.4 19.5 19.5 19.5 19.5C19.5 19.5 19.4 19.7 19.2 19.9C19.2 20 19.1 20 19.1 20.1V20.2C19.1 20.2 18.9 20.4 18.7 20.6C18.6 20.8 18.4 21 18.4 21L17.1 21.9L16.8 22.1L16.3 22.3L15.3 22.8L15.1 23L14.2 23.3H14.1L13.3 23.6L13.1 23.7L11 24.4L9.2 25.1L9 25.4L9.1 25.6L11.4 24.8L12.2 24.6L12.4 24.5L13.3 24.2L13.5 24.1L14.3 23.9H14.8H14.9H15.6H15.8L16 24.3V24.4V24.6L15.9 25L15.2 26L14.9 26.4L14.8 26.6L13 28.7L11.7 29.5L11.4 29.8L11.6 30L12.7 29.3L14.2 28.4L15.7 26.5L16.7 25.7L18.1 24.6L19.2 23.8L20.6 23.2H21.8H22L22.5 23.3L22.8 23L23 23.2L23.6 23.5L24.3 23.6H24.6L25.3 23.5L25.6 23.7L25.8 23.8L26 23.9H26.1L26.5 24H26.6L26.9 24.1L27.6 24L27.7 24.1L27.8 24.2C27.9 24.3 28.1 24.4 28.2 24.5C28.2 24.5 28.3 24.5 28.3 24.6C28.4 24.6 28.4 24.7 28.4 24.7C28.5 24.8 28.9 24.9 29.2 25C29.3 25 29.3 25 29.4 25.1C29.4 25.1 29.4 25.1 29.5 25.1C29.6 25.1 29.6 25.1 29.7 25.2C29.9 25.3 30 25.3 30 25.3L30.4 25.5L30.5 25.9L30.9 26.4L31 26.5L32.2 28L32.5 28.5L32.9 29.3L33.2 29.2H33.3V29.3L33.5 29.6L33.7 29.9L33.8 30.1L33.9 30.3V30.4L34 30.7L34.4 30.8L35.1 31.3L35.3 31.4L35.9 32.5L36.2 32.7L36.4 32.8L37.3 33.3H37.4L37.8 33.6L38.6 34.3L38.9 34.4Z" fill="white"/>
</g>
</g>
<defs>
<clipPath id="clip0_283_279">
<rect width="90" height="90" rx="45" fill="white"/>
</clipPath>
<clipPath id="clip1_283_279">
<rect width="59" height="59" fill="white" transform="translate(-26 35)"/>
</clipPath>
<clipPath id="clip2_283_279">
<rect width="29.9" height="26.7" fill="white" transform="translate(9 8)"/>
</clipPath>
</defs>
</svg>
