<svg width="90" height="90" viewBox="0 0 90 90" fill="none" xmlns="http://www.w3.org/2000/svg">
<g clip-path="url(#clip0_296_287)">
<path d="M39.5192 41.0313H50.7845C50.7845 41.0313 51.3922 49.1735 49.4721 53.0744C47.552 56.9754 43.967 60.4874 43.967 60.4874C43.967 60.4874 37.5383 51.9564 37.5383 47.9218C37.5383 43.8628 39.5192 41.0313 39.5192 41.0313Z" fill="#EDEDED"/>
<path d="M49.9098 36.0973V40.5329C49.0226 42.4895 46.9081 43.8141 44.7693 43.7533C42.6304 43.6926 39.9204 42.4409 39.7746 40.302C39.7381 39.6458 39.6895 38.9896 39.6531 38.3333C39.6166 37.7986 39.5802 37.2517 39.5437 36.717C39.4465 36.5955 39.6531 36.4254 39.8111 36.4254C43.1287 36.2552 46.5921 36.2552 49.9098 36.0973Z" fill="#664B2B"/>
<path d="M49.9098 36.0973V38.1267C48.731 39.5 47.2362 41.9183 44.988 41.9183C42.4846 41.9183 41.0506 39.8402 39.6531 38.3212C39.6166 37.7865 39.5802 37.2396 39.5437 36.7049C39.4465 36.5834 39.6531 36.4132 39.8111 36.4132C43.1287 36.2552 46.5921 36.2552 49.9098 36.0973Z" fill="black"/>
<path d="M53.4822 29.4501C53.4336 29.207 53.2756 28.9761 53.0447 28.9032C52.8138 28.8303 52.3399 28.8911 52.2913 29.122C52.352 28.648 52.4006 28.1619 52.4614 27.688C52.6923 25.7314 51.2826 23.7992 49.6906 22.6326C48.2202 21.5631 46.3365 21.1013 44.538 21.3687C42.7394 21.1013 40.8436 21.5631 39.3853 22.6326C37.7934 23.7992 36.3958 25.7314 36.6146 27.688C36.6753 28.1619 36.7239 28.648 36.7847 29.122C36.7361 28.8789 36.2743 28.8182 36.0312 28.9032C35.7882 28.9883 35.6424 29.2192 35.5937 29.4501C35.5451 29.6931 35.5694 29.9362 35.6059 30.1792C35.7031 30.9327 35.8003 31.6983 36.092 32.4031C36.2257 32.7313 36.4201 33.0594 36.6996 33.2903C36.9791 33.5212 37.368 33.6427 37.7083 33.5333C38.3038 35.3441 39.0329 37.1062 40.2603 38.5645C41.3054 39.8283 42.9217 40.7398 44.5258 40.6547C46.13 40.7398 47.7462 39.8283 48.7914 38.5645C50.0066 37.1062 50.7479 35.3441 51.3434 33.5333C51.6958 33.6306 52.0725 33.509 52.352 33.2903C52.6315 33.0594 52.8138 32.7434 52.9597 32.4031C53.2513 31.6983 53.3485 30.9327 53.4458 30.1792C53.5065 29.9483 53.5308 29.6931 53.4822 29.4501Z" fill="#664B2B"/>
<path d="M46.4221 32.403C46.653 32.3665 46.7502 32.0384 46.6287 31.8318C46.5071 31.6252 46.2398 31.5523 46.0089 31.5766C45.778 31.6009 45.5592 31.7225 45.3405 31.8197C45.1339 31.9291 44.903 32.0263 44.6721 32.0384C44.4655 32.0384 44.2589 31.9655 44.0645 31.8926C43.87 31.8197 43.6635 31.7468 43.4569 31.7589C43.2503 31.7711 43.0315 31.8804 42.9586 32.087C42.8857 32.2815 43.0315 32.5488 43.2381 32.5488C43.1774 32.3908 43.3475 32.1964 43.5055 32.1235C43.6635 32.0506 43.8457 32.087 44.0159 32.1478C44.1739 32.2086 44.3318 32.2936 44.4898 32.3422C44.7815 32.4273 45.0974 32.403 45.3648 32.2693C45.5106 32.1964 45.6322 32.087 45.778 32.0263C45.9238 31.9534 46.094 31.9169 46.2398 31.9898C46.3856 32.0506 46.5193 32.2693 46.4221 32.403Z" fill="#262626"/>
<path d="M37.0279 32.2087C36.9549 32.1237 36.9185 32.0021 36.8456 31.9171C36.7848 31.832 36.6876 31.7834 36.6268 31.6983C36.3595 31.4067 36.4202 30.9206 36.1893 30.5924C36.1529 30.5924 36.1164 30.5924 36.08 30.6046C36.165 30.8841 36.2379 31.1636 36.323 31.4431C36.3352 31.5039 36.3595 31.5646 36.3352 31.6254C36.3109 31.6862 36.2379 31.7348 36.1893 31.6983C36.1407 31.7955 36.1772 31.9171 36.2379 32.0021C36.2987 32.0872 36.3838 32.1601 36.4567 32.2452C36.5904 32.4032 36.6633 32.5854 36.7848 32.7556C36.9063 32.9257 37.0765 33.0715 37.2831 33.0594C37.441 33.0594 37.599 32.9379 37.6476 32.7799C37.757 32.2938 37.2223 32.4518 37.0279 32.2087Z" fill="#262626"/>
<path d="M51.9271 31.7224C51.8299 31.6495 51.6719 31.7467 51.6476 31.8683C51.6233 31.9898 51.6719 32.1113 51.7327 32.2207C51.6233 32.3058 51.5261 32.4273 51.5018 32.5731C51.4896 32.7189 51.5626 32.8769 51.6962 32.9255C51.8542 32.9863 52.0244 32.8648 52.1459 32.7432C52.6563 32.2328 52.79 31.4672 52.8993 30.7624C52.9115 30.6773 52.8993 30.5558 52.8143 30.5558C52.7414 30.5558 52.7049 30.6287 52.6927 30.7016C52.5834 31.0662 52.5348 31.528 52.3525 31.8683C52.0973 32.3301 52.1337 31.8804 51.9271 31.7224Z" fill="#262626"/>
<path d="M47.066 36.2189C45.4861 36.0609 43.8942 36.0731 42.3143 36.2797C43.3108 35.6113 44.6111 35.5627 45.8142 35.5748C46.0694 35.5748 46.3247 35.587 46.5677 35.6599C46.8108 35.7328 46.9809 35.9759 47.066 36.2189Z" fill="#262626"/>
<path d="M45.4622 37.1424C44.9883 37.3125 44.4657 37.349 43.9796 37.2396C44.1254 37.5556 44.4414 37.7257 44.7817 37.7014C45.1098 37.6771 45.365 37.4705 45.4622 37.1424Z" fill="#262626"/>
<g filter="url(#filter0_d_296_287)">
<path d="M56.9093 24.99C55.9614 25.6949 54.2479 27.141 44.8054 27.5664C44.7203 27.5664 41.3055 27.6514 41.2083 27.6514C38.1823 27.6514 32.0574 27.2382 31.0731 26.7035C30.8179 26.5699 30.7936 26.2174 31.0245 26.0352C31.4863 25.6949 32.1425 25.3789 32.9203 25.0873C34.0383 24.6741 35.3994 24.3217 36.8091 24.03C36.8091 23.7748 36.7969 23.471 36.8091 23.1429C36.8455 20.1533 37.3195 14.3445 40.5277 13.8462C42.302 13.8462 42.2777 14.7455 43.8089 14.6847V14.6483C43.8818 14.6604 43.9669 14.6604 44.0276 14.6726C44.1006 14.6604 44.1735 14.6604 44.2464 14.6483V14.6847C45.7898 14.7455 45.7533 13.8462 47.5276 13.8462C50.4806 14.2958 51.1125 19.2662 51.2098 22.3894C51.2219 22.6689 51.2219 22.9241 51.2219 23.1672C52.8382 23.2887 54.3937 23.4953 55.5725 23.8356C56.0708 23.9814 56.4961 24.1394 56.8485 24.3338C57.1159 24.4675 57.1402 24.8199 56.9093 24.99Z" fill="#664B2B"/>
</g>
<path d="M36.8215 24.0421C36.8215 24.0421 42.4603 22.0491 51.2344 23.1671C51.2344 23.1671 51.2222 21.5994 51.1129 20.6637C51.1129 20.6637 45.1703 19.254 36.8458 21.2835C36.8458 21.2956 36.8337 23.4952 36.8215 24.0421Z" fill="#3A3A3A"/>
<path d="M47.9409 52.2969C47.6371 50.3404 45.6077 47.2415 45.6077 47.2415L46.993 43.9725C46.993 43.9725 47.5278 43.7173 46.8108 43.377C46.349 43.1583 45.4132 43.219 44.8178 43.2919C44.2223 43.219 43.2865 43.1583 42.8247 43.377C42.0956 43.7173 42.6425 43.9725 42.6425 43.9725L44.0278 47.2415C44.0278 47.2415 42.5452 50.1216 42.4602 52.7223C42.3751 55.3229 42.4602 60.4877 42.4602 60.4877H48.342C48.3177 60.4877 48.2326 54.2535 47.9409 52.2969Z" fill="#686868"/>
<path d="M47.6614 43.3162C45.8871 44.3006 44.125 45.3214 42.3993 46.3908C41.9011 46.6946 41.415 46.9984 40.9289 47.3144C40.6372 47.4967 40.9046 47.9706 41.1962 47.7762C42.9097 46.6946 44.6475 45.6495 46.4218 44.6408C46.9201 44.3492 47.4305 44.0697 47.9409 43.7902C48.2325 43.6079 47.9652 43.1461 47.6614 43.3162Z" fill="#664B2B"/>
<path d="M47.2968 44.8838C45.401 46.0383 43.5538 47.2414 41.731 48.5052C41.6094 48.5903 41.5608 48.7361 41.6337 48.8698C41.7067 48.9913 41.8768 49.0521 41.9983 48.967C43.8212 47.7032 45.6805 46.5001 47.5642 45.3456C47.868 45.1755 47.5885 44.7015 47.2968 44.8838Z" fill="#664B2B"/>
<path d="M48.3543 47.1564C46.3127 48.1772 44.3318 49.3195 42.436 50.5955C41.9013 50.9601 41.3788 51.3247 40.8562 51.7014C40.7347 51.7865 40.6861 51.9323 40.759 52.066C40.8319 52.1875 41.0142 52.2482 41.1236 52.1632C42.9707 50.8143 44.903 49.599 46.9081 48.5053C47.4672 48.2015 48.0383 47.9098 48.6095 47.6181C48.9376 47.4723 48.6581 46.9984 48.3543 47.1564Z" fill="#664B2B"/>
<path d="M48.5002 48.9062C46.5437 50.085 44.5507 51.2273 42.5455 52.3089C41.9743 52.6127 41.4032 52.9286 40.8198 53.2203C40.516 53.3783 40.7834 53.8522 41.0872 53.6821C43.1167 52.6248 45.1218 51.5189 47.0905 50.3645C47.6495 50.0363 48.2086 49.7082 48.7676 49.368C49.0714 49.1857 48.804 48.7239 48.5002 48.9062Z" fill="#664B2B"/>
<path d="M49.0346 50.8871C46.8958 52.1145 44.7569 53.3541 42.6302 54.5815C42.0226 54.9339 41.4028 55.2863 40.7952 55.6387C40.4914 55.8089 40.7709 56.2828 41.0626 56.1005C43.2014 54.8731 45.3403 53.6336 47.4669 52.4062C48.0746 52.0537 48.6943 51.7013 49.302 51.3489C49.6179 51.1788 49.3384 50.717 49.0346 50.8871Z" fill="#664B2B"/>
<path d="M47.613 53.6335C45.8145 54.5206 44.0524 55.505 42.351 56.5623C42.0593 56.7445 42.3267 57.2185 42.6184 57.024C44.3197 55.9546 46.0818 54.9824 47.8804 54.0953C48.1964 53.9495 47.9168 53.4877 47.613 53.6335Z" fill="#664B2B"/>
<path d="M46.7379 41.9915C44.7449 42.988 42.7762 44.0453 40.8561 45.1633C40.5523 45.3335 40.8318 45.8074 41.1235 45.6251C43.0557 44.5071 45.0123 43.4498 47.0053 42.4533C47.3213 42.3075 47.0539 41.8457 46.7379 41.9915Z" fill="#664B2B"/>
<path d="M38.3164 40.6788C38.3164 40.6788 35.0717 41.6875 33.5283 41.9305C31.9971 42.1736 26.5528 43.5711 25.848 44.2759C25.1431 44.9808 20.5495 61.6783 20.8047 63.9144H39.5317C39.5195 63.9144 34.7193 45.7828 38.3164 40.6788Z" fill="#664B2B"/>
<path d="M54.3453 42.8055L51.1613 40.6666L44.7448 56.793L38.3283 40.6666L35.1322 42.8055C35.1322 42.8055 34.9499 48.9425 35.5697 54.5569C35.8856 57.4249 35.5697 63.9143 35.5697 63.9143H53.9078C53.9078 63.9143 53.5918 57.4249 53.9078 54.5569C54.5397 48.9425 54.3453 42.8055 54.3453 42.8055Z" fill="#353535"/>
<path d="M51.1615 40.6788C51.1615 40.6788 54.4062 41.6875 55.9495 41.9305C57.4808 42.1736 62.9251 43.5711 63.6299 44.2759C64.3348 44.9808 68.9406 61.6783 68.6854 63.9265H49.9584C49.9584 63.9144 54.7586 45.7828 51.1615 40.6788Z" fill="#664B2B"/>
<path d="M38.1093 41.2015C38.1093 41.2015 37.7448 41.8213 37.7448 42.3317C37.7448 42.83 39.835 47.934 40.1266 47.8854C40.4183 47.8489 41.986 47.2413 42.4478 45.7587C42.9096 44.2761 44.8175 43.3039 44.8175 43.3039C44.8175 43.3039 47.09 44.507 47.0779 45.3091C47.0657 46.099 49.4962 47.6423 49.4962 47.6423C49.4962 47.6423 50.5413 46.1354 50.8937 44.5556C51.2462 42.9758 51.635 41.4446 51.635 41.4446L38.1093 41.2015Z" fill="url(#paint0_linear_296_287)"/>
<path d="M43.9793 43.2308C43.9793 43.2308 43.1529 43.6318 42.3266 45.1873C41.488 46.7428 40.2363 47.2411 40.2363 47.2411C40.2363 47.2411 38.5836 44.288 38.0367 41.4322C38.0367 41.4322 38.4621 39.7795 39.7016 39.0017C39.6895 39.0139 41.2815 43.0363 43.9793 43.2308Z" fill="#B2B2B2"/>
<path d="M45.6683 43.2308C45.6683 43.2308 46.4947 43.6318 47.3211 45.1873C48.1596 46.7428 49.4113 47.2411 49.4113 47.2411C49.4113 47.2411 51.064 44.288 51.6109 41.4322C51.6109 41.4322 51.1856 39.7795 49.946 39.0017C49.9582 39.0139 48.3662 43.0363 45.6683 43.2308Z" fill="#B2B2B2"/>
<path d="M63.5142 61.5834H75.7454C75.7454 61.5834 76.4052 70.7398 74.3204 75.1267C72.2357 79.5135 68.3434 83.4631 68.3434 83.4631C68.3434 83.4631 61.3635 73.8694 61.3635 69.3322C61.3635 64.7677 63.5142 61.5834 63.5142 61.5834Z" fill="#EDEDED"/>
<path d="M74.7958 56.035V61.0232C73.8326 63.2234 71.5368 64.7131 69.2146 64.6447C66.8923 64.5764 63.95 63.1688 63.7917 60.7635C63.7521 60.0255 63.6993 59.2876 63.6597 58.5496C63.6201 57.9483 63.5805 57.3333 63.541 56.732C63.4354 56.5953 63.6597 56.404 63.8312 56.404C67.4333 56.2127 71.1937 56.2127 74.7958 56.035Z" fill="white"/>
<path d="M74.7958 56.035V58.3173C73.5159 59.8616 71.893 62.5811 69.4521 62.5811C66.734 62.5811 65.1771 60.2442 63.6597 58.5359C63.6201 57.9346 63.5805 57.3196 63.541 56.7183C63.4354 56.5817 63.6597 56.3903 63.8312 56.3903C67.4333 56.2127 71.1937 56.2127 74.7958 56.035Z" fill="black"/>
<path d="M78.6751 48.5595C78.6224 48.2862 78.4508 48.0266 78.2001 47.9446C77.9494 47.8626 77.4349 47.9309 77.3821 48.1905C77.4481 47.6576 77.5008 47.1109 77.5668 46.5779C77.8175 44.3777 76.2869 42.2047 74.5585 40.8928C72.9619 39.6901 70.9168 39.1708 68.964 39.4715C67.0113 39.1708 64.9529 39.6901 63.3696 40.8928C61.6411 42.2047 60.1238 44.3777 60.3613 46.5779C60.4272 47.1109 60.48 47.6576 60.546 48.1905C60.4932 47.9172 59.9918 47.8489 59.7279 47.9446C59.4641 48.0402 59.3057 48.2999 59.2529 48.5595C59.2002 48.8329 59.2266 49.1062 59.2661 49.3795C59.3717 50.2268 59.4772 51.0878 59.7939 51.8804C59.9391 52.2494 60.1502 52.6184 60.4536 52.8781C60.7571 53.1377 61.1793 53.2744 61.5488 53.1514C62.1953 55.1877 62.987 57.1693 64.3196 58.8092C65.4543 60.2305 67.2092 61.2555 68.9508 61.1598C70.6925 61.2555 72.4474 60.2305 73.5821 58.8092C74.9015 57.1693 75.7064 55.1877 76.3529 53.1514C76.7356 53.2607 77.1446 53.1241 77.4481 52.8781C77.7515 52.6184 77.9494 52.2631 78.1078 51.8804C78.4244 51.0878 78.53 50.2268 78.6355 49.3795C78.7015 49.1198 78.7279 48.8329 78.6751 48.5595Z" fill="white"/>
<path d="M71.009 51.8805C71.2597 51.8395 71.3652 51.4705 71.2333 51.2381C71.1013 51.0058 70.8111 50.9238 70.5604 50.9512C70.3097 50.9785 70.0722 51.1151 69.8347 51.2245C69.6104 51.3475 69.3597 51.4568 69.109 51.4705C68.8847 51.4705 68.6604 51.3885 68.4493 51.3065C68.2382 51.2245 68.0138 51.1425 67.7895 51.1561C67.5652 51.1698 67.3277 51.2928 67.2486 51.5251C67.1694 51.7438 67.3277 52.0445 67.552 52.0445C67.4861 51.8668 67.6708 51.6481 67.8423 51.5661C68.0138 51.4841 68.2118 51.5251 68.3965 51.5935C68.568 51.6618 68.7395 51.7575 68.9111 51.8121C69.2277 51.9078 69.5708 51.8805 69.8611 51.7301C70.0194 51.6481 70.1513 51.5251 70.3097 51.4568C70.468 51.3748 70.6527 51.3338 70.8111 51.4158C70.9694 51.4841 71.1145 51.7301 71.009 51.8805Z" fill="#262626"/>
<path d="M60.8097 51.6617C60.7305 51.5661 60.6909 51.4294 60.6118 51.3337C60.5458 51.2381 60.4402 51.1834 60.3743 51.0877C60.084 50.7598 60.15 50.2131 59.8993 49.8441C59.8597 49.8441 59.8201 49.8441 59.7805 49.8578C59.8729 50.1721 59.952 50.4864 60.0444 50.8008C60.0576 50.8691 60.084 50.9374 60.0576 51.0057C60.0312 51.0741 59.952 51.1287 59.8993 51.0877C59.8465 51.1971 59.8861 51.3337 59.952 51.4294C60.018 51.5251 60.1104 51.6071 60.1895 51.7027C60.3347 51.8804 60.4139 52.0854 60.5458 52.2767C60.6777 52.468 60.8625 52.632 61.0868 52.6184C61.2583 52.6184 61.4298 52.4817 61.4826 52.304C61.6013 51.7574 61.0208 51.9351 60.8097 51.6617Z" fill="#262626"/>
<path d="M76.9859 51.1152C76.8804 51.0332 76.7089 51.1425 76.6825 51.2792C76.6561 51.4159 76.7089 51.5525 76.7748 51.6755C76.6561 51.7712 76.5505 51.9078 76.5241 52.0718C76.5109 52.2358 76.5901 52.4135 76.7352 52.4682C76.9068 52.5365 77.0915 52.3998 77.2234 52.2632C77.7776 51.6892 77.9227 50.8282 78.0415 50.0356C78.0547 49.9399 78.0415 49.8032 77.9491 49.8032C77.87 49.8032 77.8304 49.8852 77.8172 49.9672C77.6984 50.3772 77.6457 50.8965 77.4477 51.2792C77.1707 51.7985 77.2102 51.2929 76.9859 51.1152Z" fill="#262626"/>
<path d="M71.7086 56.1716C69.9933 55.9939 68.2648 56.0076 66.5496 56.2399C67.6315 55.4882 69.0433 55.4336 70.3496 55.4472C70.6266 55.4472 70.9037 55.4609 71.1676 55.5429C71.4315 55.6249 71.6162 55.8982 71.7086 56.1716Z" fill="#262626"/>
<path d="M69.9667 57.2102C69.4521 57.4015 68.8847 57.4425 68.3569 57.3195C68.5153 57.6748 68.8583 57.8662 69.2278 57.8388C69.584 57.8115 69.8611 57.5792 69.9667 57.2102Z" fill="#262626"/>
<g filter="url(#filter1_d_296_287)">
<path d="M82.3959 43.5441C81.3667 44.3367 79.5063 45.963 69.2542 46.4413C69.1619 46.4413 65.4543 46.537 65.3487 46.537C62.0633 46.537 55.4133 46.0723 54.3446 45.471C54.0675 45.3207 54.0411 44.9243 54.2918 44.7194C54.7932 44.3367 55.5057 43.9814 56.3501 43.6534C57.564 43.1887 59.0418 42.7924 60.5723 42.4644C60.5723 42.1774 60.5591 41.8358 60.5723 41.4668C60.6119 38.1049 61.1265 31.5724 64.6098 31.0121C66.5362 31.0121 66.5098 32.0234 68.1723 31.9551V31.9141C68.2515 31.9278 68.3438 31.9278 68.4098 31.9414C68.489 31.9278 68.5681 31.9278 68.6473 31.9141V31.9551C70.323 32.0234 70.2834 31.0121 72.2098 31.0121C75.416 31.5178 76.1021 37.1073 76.2077 40.6195C76.2209 40.9338 76.2209 41.2208 76.2209 41.4941C77.9758 41.6308 79.6646 41.8631 80.9445 42.2458C81.4855 42.4098 81.9473 42.5874 82.3299 42.8061C82.6202 42.9564 82.6466 43.3527 82.3959 43.5441Z" fill="white"/>
</g>
<path d="M60.5851 42.4781C60.5851 42.4781 66.7073 40.2368 76.2337 41.4941C76.2337 41.4941 76.2205 39.7312 76.1017 38.6789C76.1017 38.6789 69.6497 37.0936 60.6115 39.3758C60.6115 39.3895 60.5983 41.8631 60.5851 42.4781Z" fill="#3A3A3A"/>
<path d="M72.6584 74.2522C72.3285 72.0519 70.125 68.567 70.125 68.567L71.6292 64.8908C71.6292 64.8908 72.2097 64.6038 71.4313 64.2211C70.9299 63.9751 69.9139 64.0435 69.2674 64.1255C68.6209 64.0435 67.6049 63.9751 67.1035 64.2211C66.3118 64.6038 66.9056 64.8908 66.9056 64.8908L68.4098 68.567C68.4098 68.567 66.8 71.8059 66.7077 74.7305C66.6153 77.6551 66.7077 83.4632 66.7077 83.4632H73.0938C73.0674 83.4632 72.975 76.4524 72.6584 74.2522Z" fill="#686868"/>
<path d="M72.3546 64.1528C70.4282 65.2597 68.5151 66.4077 66.6414 67.6103C66.1005 67.952 65.5727 68.2937 65.0449 68.649C64.7283 68.854 65.0185 69.387 65.3352 69.1683C67.1956 67.952 69.0824 66.7767 71.0088 65.6424C71.5498 65.3144 72.1039 65.0001 72.6581 64.6858C72.9748 64.4808 72.6845 63.9615 72.3546 64.1528Z" fill="white"/>
<path d="M71.9587 65.9156C69.9004 67.2139 67.8949 68.5669 65.9157 69.9882C65.7838 70.0838 65.731 70.2478 65.8101 70.3982C65.8893 70.5348 66.074 70.6032 66.206 70.5075C68.1851 69.0862 70.2039 67.7332 72.249 66.435C72.5789 66.2436 72.2754 65.7106 71.9587 65.9156Z" fill="white"/>
<path d="M73.1067 68.4712C70.89 69.6192 68.7394 70.9038 66.681 72.3388C66.1005 72.7488 65.5331 73.1587 64.9657 73.5824C64.8338 73.6781 64.781 73.8421 64.8602 73.9924C64.9394 74.129 65.1373 74.1974 65.256 74.1017C67.2616 72.5848 69.3595 71.2181 71.5366 69.9882C72.1435 69.6465 72.7636 69.3185 73.3838 68.9905C73.74 68.8265 73.4366 68.2936 73.1067 68.4712Z" fill="white"/>
<path d="M73.265 70.4392C71.1407 71.7648 68.9769 73.0494 66.7998 74.2657C66.1796 74.6074 65.5595 74.9627 64.9262 75.2907C64.5963 75.4684 64.8866 76.0013 65.2164 75.81C67.4199 74.6211 69.597 73.3774 71.7345 72.0791C72.3414 71.7102 72.9484 71.3412 73.5553 70.9585C73.8852 70.7535 73.5949 70.2342 73.265 70.4392Z" fill="white"/>
<path d="M73.8453 72.6669C71.5231 74.0472 69.2009 75.4411 66.8919 76.8214C66.2321 77.2177 65.5592 77.614 64.8995 78.0104C64.5696 78.2017 64.8731 78.7347 65.1898 78.5297C67.512 77.1494 69.8342 75.7554 72.1432 74.3751C72.803 73.9788 73.4759 73.5825 74.1356 73.1862C74.4787 72.9949 74.1752 72.4755 73.8453 72.6669Z" fill="white"/>
<path d="M72.302 75.7554C70.3493 76.753 68.4361 77.86 66.5889 79.049C66.2722 79.2539 66.5625 79.7869 66.8791 79.5683C68.7264 78.3656 70.6396 77.2723 72.5923 76.2747C72.9354 76.1107 72.6319 75.5914 72.302 75.7554Z" fill="white"/>
<path d="M71.3518 62.6631C69.1879 63.7837 67.0504 64.9727 64.9657 66.23C64.6358 66.4213 64.9393 66.9543 65.2559 66.7493C67.3539 65.492 69.4782 64.303 71.642 63.1824C71.9851 63.0184 71.6948 62.4991 71.3518 62.6631Z" fill="white"/>
<path d="M62.2084 61.1872C62.2084 61.1872 58.6854 62.3215 57.0098 62.5948C55.3473 62.8682 49.4362 64.4398 48.6709 65.2324C47.9056 66.0251 42.9181 84.8025 43.1952 87.3171H63.5278C63.5146 87.3171 58.3028 66.927 62.2084 61.1872Z" fill="white"/>
<path d="M79.6118 63.5788L76.1548 61.1735L69.1882 79.3086L62.2215 61.1735L58.7514 63.5788C58.7514 63.5788 58.5535 70.4802 59.2264 76.794C59.5694 80.0192 59.2264 87.317 59.2264 87.317H79.1368C79.1368 87.317 78.7937 80.0192 79.1368 76.794C79.8229 70.4802 79.6118 63.5788 79.6118 63.5788Z" fill="#353535"/>
<path d="M76.155 61.1872C76.155 61.1872 79.6779 62.3215 81.3536 62.5948C83.0161 62.8682 88.9272 64.4398 89.6925 65.2324C90.4578 66.0251 95.4584 84.8025 95.1814 87.3307H74.8488C74.8488 87.3171 80.0605 66.927 76.155 61.1872Z" fill="white"/>
<path d="M61.9841 61.7749C61.9841 61.7749 61.5883 62.4719 61.5883 63.0459C61.5883 63.6062 63.8577 69.346 64.1744 69.2913C64.491 69.2503 66.1931 68.567 66.6945 66.8997C67.1959 65.2325 69.2674 64.1392 69.2674 64.1392C69.2674 64.1392 71.7348 65.4921 71.7216 66.3941C71.7084 67.2824 74.3473 69.018 74.3473 69.018C74.3473 69.018 75.482 67.3234 75.8646 65.5468C76.2473 63.7702 76.6695 62.0482 76.6695 62.0482L61.9841 61.7749Z" fill="url(#paint1_linear_296_287)"/>
<path d="M68.357 64.0571C68.357 64.0571 67.4598 64.5081 66.5625 66.2574C65.6521 68.0066 64.2931 68.5669 64.2931 68.5669C64.2931 68.5669 62.4987 65.2461 61.9049 62.0345C61.9049 62.0345 62.3667 60.1759 63.7125 59.3012C63.6993 59.3149 65.4278 63.8384 68.357 64.0571Z" fill="#B2B2B2"/>
<path d="M70.191 64.0571C70.191 64.0571 71.0883 64.5081 71.9855 66.2574C72.8959 68.0066 74.2549 68.5669 74.2549 68.5669C74.2549 68.5669 76.0494 65.2461 76.6431 62.0345C76.6431 62.0345 76.1813 60.1759 74.8355 59.3012C74.8487 59.3149 73.1202 63.8384 70.191 64.0571Z" fill="#B2B2B2"/>
<path d="M15.5488 61.1239H28.027C28.027 61.1239 28.7 70.1426 26.5732 74.4635C24.4464 78.7845 20.4755 82.6746 20.4755 82.6746C20.4755 82.6746 13.3547 73.2251 13.3547 68.7562C13.3547 64.2603 15.5488 61.1239 15.5488 61.1239Z" fill="#EDEDED"/>
<path d="M27.0576 55.6589V60.5721C26.075 62.7393 23.7328 64.2065 21.3637 64.1392C18.9946 64.0719 15.9929 62.6855 15.8313 60.3164C15.7909 59.5895 15.7371 58.8626 15.6967 58.1357C15.6563 57.5434 15.616 56.9377 15.5756 56.3454C15.4679 56.2108 15.6967 56.0224 15.8717 56.0224C19.5465 55.8339 23.3828 55.8339 27.0576 55.6589Z" fill="#161616"/>
<path d="M27.0576 55.6589V57.9069C25.7519 59.4279 24.0962 62.1066 21.606 62.1066C18.8331 62.1066 17.2447 59.8048 15.6967 58.1222C15.6563 57.53 15.616 56.9242 15.5756 56.332C15.4679 56.1974 15.6967 56.0089 15.8717 56.0089C19.5465 55.8339 23.3828 55.8339 27.0576 55.6589Z" fill="black"/>
<path d="M31.0152 48.2958C30.9614 48.0266 30.7864 47.7708 30.5306 47.6901C30.2749 47.6093 29.7499 47.6766 29.6961 47.9324C29.7634 47.4074 29.8172 46.869 29.8845 46.344C30.1403 44.1768 28.5788 42.0365 26.8154 40.7443C25.1867 39.5598 23.1003 39.0482 21.1081 39.3444C19.1159 39.0482 17.016 39.5598 15.4007 40.7443C13.6373 42.0365 12.0893 44.1768 12.3316 46.344C12.3989 46.869 12.4528 47.4074 12.5201 47.9324C12.4662 47.6632 11.9547 47.5959 11.6855 47.6901C11.4163 47.7843 11.2548 48.0401 11.2009 48.2958C11.1471 48.565 11.174 48.8342 11.2144 49.1035C11.3221 49.938 11.4298 50.7861 11.7528 51.5668C11.9009 51.9302 12.1163 52.2937 12.4259 52.5494C12.7355 52.8052 13.1662 52.9398 13.5431 52.8186C14.2027 54.8243 15.0103 56.7761 16.3699 58.3914C17.5275 59.7913 19.3178 60.8009 21.0946 60.7067C22.8714 60.8009 24.6617 59.7913 25.8193 58.3914C27.1654 56.7761 27.9865 54.8243 28.6461 52.8186C29.0365 52.9263 29.4538 52.7917 29.7634 52.5494C30.073 52.2937 30.2749 51.9437 30.4364 51.5668C30.7595 50.7861 30.8671 49.938 30.9748 49.1035C31.0421 48.8477 31.069 48.565 31.0152 48.2958Z" fill="#111111"/>
<path d="M23.1944 51.5666C23.4502 51.5262 23.5579 51.1628 23.4233 50.9339C23.2887 50.7051 22.9925 50.6243 22.7368 50.6512C22.481 50.6782 22.2387 50.8128 21.9964 50.9205C21.7676 51.0416 21.5118 51.1493 21.2561 51.1628C21.0273 51.1628 20.7984 51.082 20.5831 51.0012C20.3677 50.9205 20.1388 50.8397 19.91 50.8532C19.6812 50.8666 19.4389 50.9878 19.3581 51.2166C19.2774 51.432 19.4389 51.7281 19.6677 51.7281C19.6004 51.5531 19.7889 51.3377 19.9639 51.257C20.1388 51.1762 20.3408 51.2166 20.5292 51.2839C20.7042 51.3512 20.8792 51.4454 21.0542 51.4993C21.3772 51.5935 21.7272 51.5666 22.0234 51.4185C22.1849 51.3377 22.3195 51.2166 22.481 51.1493C22.6426 51.0685 22.831 51.0281 22.9925 51.1089C23.1541 51.1762 23.3021 51.4185 23.1944 51.5666Z" fill="#262626"/>
<path d="M12.7891 51.3514C12.7083 51.2572 12.6679 51.1226 12.5872 51.0283C12.5199 50.9341 12.4122 50.8803 12.3449 50.786C12.0487 50.463 12.116 49.9246 11.8603 49.5611C11.8199 49.5611 11.7795 49.5611 11.7391 49.5746C11.8334 49.8842 11.9141 50.1938 12.0084 50.5034C12.0218 50.5707 12.0487 50.638 12.0218 50.7053C11.9949 50.7726 11.9141 50.8264 11.8603 50.786C11.8064 50.8937 11.8468 51.0283 11.9141 51.1226C11.9814 51.2168 12.0757 51.2976 12.1564 51.3918C12.3045 51.5668 12.3853 51.7687 12.5199 51.9571C12.6545 52.1456 12.8429 52.3071 13.0718 52.2937C13.2467 52.2937 13.4217 52.159 13.4756 51.9841C13.5967 51.4456 13.0045 51.6206 12.7891 51.3514Z" fill="#262626"/>
<path d="M29.2923 50.813C29.1846 50.7323 29.0096 50.84 28.9827 50.9746C28.9558 51.1092 29.0096 51.2438 29.0769 51.3649C28.9558 51.4592 28.8481 51.5938 28.8212 51.7553C28.8077 51.9168 28.8885 52.0918 29.0365 52.1457C29.2115 52.213 29.4 52.0783 29.5346 51.9437C30.0999 51.3784 30.248 50.5304 30.3691 49.7496C30.3826 49.6554 30.3691 49.5208 30.2749 49.5208C30.1942 49.5208 30.1538 49.6016 30.1403 49.6823C30.0192 50.0862 29.9653 50.5977 29.7634 50.9746C29.4807 51.4861 29.5211 50.988 29.2923 50.813Z" fill="#262626"/>
<path d="M23.9077 55.7935C22.1578 55.6185 20.3944 55.6319 18.6445 55.8608C19.7483 55.1204 21.1886 55.0666 22.5212 55.08C22.8039 55.08 23.0866 55.0935 23.3558 55.1743C23.625 55.255 23.8135 55.5242 23.9077 55.7935Z" fill="#262626"/>
<path d="M22.131 56.8163C21.606 57.0047 21.0272 57.0451 20.4888 56.924C20.6503 57.274 21.0003 57.4624 21.3772 57.4355C21.7406 57.4086 22.0233 57.1797 22.131 56.8163Z" fill="#262626"/>
<path d="M34.811 43.3557C33.761 44.1364 31.8631 45.7382 21.404 46.2093C21.3098 46.2093 17.5273 46.3036 17.4196 46.3036C14.0679 46.3036 7.28367 45.8459 6.19335 45.2536C5.91067 45.1056 5.88375 44.7152 6.1395 44.5133C6.65101 44.1364 7.3779 43.7864 8.23939 43.4633C9.47778 43.0057 10.9854 42.6153 12.5468 42.2923C12.5468 42.0096 12.5334 41.6731 12.5468 41.3096C12.5872 37.9983 13.1122 31.564 16.6658 31.0121C18.6311 31.0121 18.6042 32.0082 20.3003 31.9409V31.9005C20.381 31.914 20.4752 31.914 20.5425 31.9274C20.6233 31.914 20.7041 31.914 20.7848 31.9005V31.9409C22.4944 32.0082 22.454 31.0121 24.4193 31.0121C27.6902 31.5102 28.3902 37.0156 28.4979 40.4751C28.5113 40.7846 28.5113 41.0673 28.5113 41.3365C30.3016 41.4711 32.0246 41.7 33.3303 42.0769C33.8822 42.2384 34.3533 42.4134 34.7437 42.6288C35.0398 42.7768 35.0667 43.1672 34.811 43.3557Z" fill="#161616"/>
<path d="M12.5602 42.3057C12.5602 42.3057 18.806 40.0981 28.5247 41.3365C28.5247 41.3365 28.5112 39.6001 28.3901 38.5636C28.3901 38.5636 21.8077 37.0022 12.5871 39.2501C12.5871 39.2636 12.5736 41.7 12.5602 42.3057Z" fill="#3A3A3A"/>
<path d="M24.877 73.602C24.5405 71.4348 22.2925 68.0023 22.2925 68.0023L23.827 64.3814C23.827 64.3814 24.4193 64.0987 23.6251 63.7218C23.1136 63.4795 22.0771 63.5468 21.4176 63.6276C20.758 63.5468 19.7215 63.4795 19.21 63.7218C18.4023 64.0987 19.0081 64.3814 19.0081 64.3814L20.5426 68.0023C20.5426 68.0023 18.9004 71.1925 18.8062 74.0731C18.7119 76.9537 18.8062 82.6746 18.8062 82.6746H25.3212C25.2943 82.6746 25.2 75.7692 24.877 73.602Z" fill="#686868"/>
<path d="M24.5675 63.6545C22.6022 64.7448 20.6504 65.8755 18.7389 67.0601C18.187 67.3966 17.6486 67.7331 17.1102 68.0831C16.7871 68.285 17.0833 68.81 17.4063 68.5946C19.3043 67.3966 21.2292 66.239 23.1945 65.1217C23.7463 64.7987 24.3117 64.4891 24.8771 64.1795C25.2001 63.9775 24.904 63.466 24.5675 63.6545Z" fill="#9B9B9B"/>
<path d="M24.1633 65.3909C22.0635 66.6697 20.0174 68.0023 17.9983 69.4022C17.8637 69.4964 17.8098 69.658 17.8906 69.806C17.9714 69.9406 18.1598 70.0079 18.2944 69.9137C20.3136 68.5138 22.3731 67.1812 24.4595 65.9024C24.796 65.714 24.4864 65.189 24.1633 65.3909Z" fill="#9B9B9B"/>
<path d="M25.3345 67.9082C23.0731 69.0389 20.879 70.3042 18.7791 71.7176C18.1868 72.1214 17.608 72.5252 17.0292 72.9425C16.8946 73.0367 16.8407 73.1983 16.9215 73.3463C17.0023 73.4809 17.2042 73.5482 17.3253 73.454C19.3714 71.9599 21.5116 70.6138 23.7326 69.4023C24.3518 69.0658 24.9845 68.7427 25.6172 68.4197C25.9806 68.2581 25.671 67.7332 25.3345 67.9082Z" fill="#9B9B9B"/>
<path d="M25.4963 69.8464C23.3291 71.1521 21.1215 72.4174 18.9005 73.6154C18.2678 73.9519 17.6352 74.3019 16.989 74.625C16.6525 74.8 16.9487 75.3249 17.2852 75.1365C19.5331 73.9654 21.7542 72.7405 23.9348 71.4617C24.554 71.0982 25.1732 70.7348 25.7924 70.3579C26.1289 70.156 25.8328 69.6445 25.4963 69.8464Z" fill="#9B9B9B"/>
<path d="M26.0885 72.0405C23.7194 73.4 21.3503 74.7731 18.9947 76.1326C18.3216 76.523 17.6351 76.9133 16.9621 77.3037C16.6256 77.4921 16.9352 78.0171 17.2582 77.8152C19.6273 76.4556 21.9964 75.0826 24.3521 73.7231C25.0251 73.3327 25.7116 72.9424 26.3846 72.552C26.7346 72.3636 26.425 71.8521 26.0885 72.0405Z" fill="#9B9B9B"/>
<path d="M24.5135 75.0826C22.5213 76.0652 20.5695 77.1556 18.685 78.3266C18.362 78.5286 18.6581 79.0535 18.9812 78.8382C20.8657 77.6536 22.8175 76.5767 24.8097 75.5941C25.1597 75.4326 24.8501 74.9211 24.5135 75.0826Z" fill="#9B9B9B"/>
<path d="M23.5444 62.1872C21.3368 63.291 19.1561 64.4621 17.0293 65.7004C16.6928 65.8889 17.0024 66.4139 17.3255 66.212C19.4657 64.9736 21.6329 63.8025 23.8405 62.6987C24.1905 62.5372 23.8943 62.0256 23.5444 62.1872Z" fill="#9B9B9B"/>
<path d="M14.2161 60.7334C14.2161 60.7334 10.622 61.8507 8.91252 62.1199C7.21647 62.3891 1.18603 63.9371 0.405307 64.7178C-0.375419 65.4985 -5.4636 83.9937 -5.18092 86.4704H15.5622C15.5487 86.4704 10.2317 66.3869 14.2161 60.7334Z" fill="#141414"/>
<path d="M31.9708 63.0891L28.4441 60.72L21.3368 78.5824L14.2295 60.72L10.6893 63.0891C10.6893 63.0891 10.4874 69.8868 11.1739 76.1057C11.5239 79.2824 11.1739 86.4705 11.1739 86.4705H31.4862C31.4862 86.4705 31.1363 79.2824 31.4862 76.1057C32.1862 69.8868 31.9708 63.0891 31.9708 63.0891Z" fill="#353535"/>
<path d="M28.4437 60.7334C28.4437 60.7334 32.0377 61.8507 33.7473 62.1199C35.4433 62.3891 41.4737 63.9371 42.2545 64.7178C43.0352 65.4985 48.1368 83.9937 47.8542 86.4839H27.1111C27.1111 86.4704 32.4281 66.3869 28.4437 60.7334Z" fill="#141414"/>
<path d="M13.9871 61.3125C13.9871 61.3125 13.5833 61.999 13.5833 62.5643C13.5833 63.1162 15.8985 68.7698 16.2216 68.7159C16.5446 68.6755 18.2811 68.0025 18.7926 66.3603C19.3041 64.7181 21.4174 63.6412 21.4174 63.6412C21.4174 63.6412 23.9346 64.9738 23.9211 65.8622C23.9077 66.7372 26.5998 68.4467 26.5998 68.4467C26.5998 68.4467 27.7575 66.7776 28.1478 65.0277C28.5382 63.2778 28.9689 61.5817 28.9689 61.5817L13.9871 61.3125Z" fill="url(#paint2_linear_296_287)"/>
<path d="M20.4887 63.5603C20.4887 63.5603 19.5734 64.0045 18.658 65.7275C17.7292 67.4505 16.3428 68.0024 16.3428 68.0024C16.3428 68.0024 14.5121 64.7314 13.9064 61.5681C13.9064 61.5681 14.3775 59.7374 15.7505 58.8759C15.737 58.8894 17.5004 63.3449 20.4887 63.5603Z" fill="#B2B2B2"/>
<path d="M22.3599 63.5603C22.3599 63.5603 23.2752 64.0045 24.1905 65.7275C25.1193 67.4505 26.5058 68.0024 26.5058 68.0024C26.5058 68.0024 28.3365 64.7314 28.9422 61.5681C28.9422 61.5681 28.4711 59.7374 27.0981 58.8759C27.1115 58.8894 25.3482 63.3449 22.3599 63.5603Z" fill="#B2B2B2"/>
<path d="M67.0179 178.817C67.4151 178.647 67.6988 178.533 67.8123 178.533C68.096 178.533 67.8691 177.455 67.8691 177.342C67.8691 177.115 67.9258 176.888 67.8691 176.661C67.8123 176.377 67.5286 176.15 67.5286 175.809C67.5286 175.639 67.5286 175.469 67.5853 175.299C67.6421 175.015 67.6988 174.731 67.7556 174.447C67.8123 174.22 67.8123 173.993 67.8123 173.823C67.7556 173.54 67.5286 173.426 67.4718 173.142C67.3583 172.859 67.4151 172.461 67.4151 172.178C67.3583 171.497 67.3583 170.759 67.3583 170.078C67.2449 163.949 64.0103 142.783 63.3293 139.435C62.6484 136.087 61.7404 128.085 61.173 119.857C61.0027 117.531 61.2297 114.75 60.7757 111.856C60.7757 111.969 60.8325 112.083 60.8325 112.083C60.8325 112.083 61.0595 111.515 61.2865 110.834C61.4567 110.267 61.6837 108.508 61.7404 107.657C62.3646 107.884 62.9888 107.94 63.2726 107.94C63.3861 107.94 63.4428 107.884 63.4996 107.827C63.5563 107.77 63.5563 107.77 63.5563 107.713C64.521 104.649 67.8123 86.3199 67.6421 85.8092C67.4151 83.9933 62.9321 63.9617 62.5916 62.7133C62.2511 61.4649 61.7404 61.7486 61.7404 61.7486C60.8325 61.1244 54.3634 59.649 53.4554 59.4788C52.5475 59.3085 51.5828 58.4573 50.9018 57.9466C50.2209 57.4359 49.9371 57.6629 49.9371 57.6629C49.7101 57.4359 49.7101 57.3791 49.5966 57.5494C49.5399 56.9252 49.4264 54.939 49.4832 54.8823C49.4832 54.8823 49.7101 54.2581 49.8236 53.9743C49.8804 53.6906 49.9371 51.9882 49.9371 51.9882C49.9371 51.9882 50.5046 51.9882 50.7316 51.0235C51.0153 50.0588 50.8451 50.2291 50.9586 49.1509C51.0721 48.0727 50.9018 46.7108 49.9371 47.6755C49.9371 47.3917 49.9939 46.8243 50.1641 45.4623C50.3911 42.9655 49.6534 42.0008 48.0645 40.4686C46.4756 38.9365 43.1843 38.4825 41.2549 39.05C39.3823 39.6174 36.8854 42.2278 36.7152 43.6464C36.5449 45.0651 37.5664 47.6187 37.7933 48.0727C37.8501 48.1862 37.9636 48.3564 38.0771 48.5267C37.7366 48.2997 37.3394 48.2429 37.0556 48.6969C36.4882 49.6048 37.3394 50.5128 37.5664 51.591C37.7933 52.6124 38.6445 53.1799 39.2688 52.7827C39.2688 52.7827 39.2688 54.712 40.0065 55.4498C40.0065 55.4498 40.1767 56.6414 40.1767 57.9466C40.1767 57.9466 39.7795 58.2871 39.3823 59.0248C39.3823 58.968 39.2688 59.0248 39.0418 59.3653C39.0418 59.3653 38.758 59.5355 38.1906 59.7057C37.6231 59.876 30.3028 62.3728 29.7353 62.7701C29.7353 62.7701 29.1111 62.5431 28.8274 63.6213C28.6004 64.6995 24.7416 84.7878 24.4579 87.0009C24.4579 87.0009 26.1603 106.181 27.4087 108.054C27.5222 108.394 28.2599 108.394 28.6571 108.224C28.6571 108.224 28.6571 108.224 28.7139 108.224C29.0544 109.019 29.6786 110.494 30.0191 110.834C30.246 111.061 30.3595 111.175 30.4163 111.232C30.473 112.253 30.5298 113.218 30.473 113.729C30.3595 117.474 33.0834 132.228 33.4806 136.37C33.8778 140.513 34.6723 151.806 34.956 156.175C35.2965 161.055 36.0909 165.935 36.5449 170.816C36.6017 171.44 36.9421 172.405 36.7719 173.029C36.6584 173.426 36.2612 173.54 36.4314 173.993C36.5449 174.334 36.9421 174.504 36.9421 174.901C36.9421 175.072 36.8287 175.185 36.7152 175.355C36.6584 175.469 36.5449 175.696 36.6584 175.809C36.7152 175.866 36.8287 175.923 36.8287 175.98C36.7152 176.944 36.7719 177.625 36.8287 178.363C37.0556 178.533 37.6231 178.647 38.3608 178.703C38.0203 180.009 36.5449 181.654 34.6723 183.357C33.7643 184.208 32.0619 186.932 34.2183 187.84C36.1477 188.294 39.7227 187.84 41.1414 186.875C42.5601 185.967 42.1628 184.889 42.5601 184.662C42.9005 184.435 45.5676 183.924 45.5676 183.3C45.5676 182.676 45.7946 181.768 45.5676 181.427C45.3406 181.087 45.6244 180.633 45.6811 179.952C45.6811 179.611 45.5676 179.044 45.3406 178.533L45.3974 178.476C45.7946 177.058 45.4541 175.526 45.8514 174.05C46.0216 173.369 45.7946 173.029 45.6811 172.405C45.6244 171.837 45.7379 171.156 45.7379 170.589C45.7946 169.284 45.8514 167.978 45.8514 166.73C45.9081 164.63 45.7946 162.531 45.6811 160.431C45.3974 156.118 44.0922 148.628 44.2057 146.244C44.3192 143.861 43.922 141.364 44.2057 138.243C44.2625 137.449 44.4327 135.916 44.5462 134.101V134.157C44.8867 134.044 44.8299 132.341 44.8867 131.944C44.9434 131.036 45.0569 130.128 45.1137 129.22C45.1137 128.596 45.1137 127.972 45.1704 127.348C45.5109 124.056 45.7946 121.106 46.0216 120.141C46.0216 120.084 46.0216 120.084 46.0784 120.027C46.1351 119.971 46.1351 119.914 46.1351 119.8C46.7026 119.29 50.2776 132.001 51.1288 136.541C52.0368 141.137 54.4201 148.287 55.2146 154.075C56.009 159.864 57.6547 170.248 58.4491 173.993C58.5059 174.334 58.6194 174.674 58.6761 175.015C58.7329 175.299 58.6194 175.582 58.6761 175.866C58.7329 176.093 58.9598 176.263 58.9598 176.49C59.1301 177.512 59.5841 178.647 59.9813 179.668C60.1515 179.725 60.265 179.725 60.4353 179.782C60.3218 180.349 60.3785 180.973 60.3785 181.314C60.4353 181.768 60.7757 181.541 60.5487 181.768C60.3218 181.938 60.3785 183.811 60.5487 184.094C60.719 184.378 61.6269 184.889 62.2511 185.116C62.8754 185.343 63.0456 185.74 63.1023 186.308C63.1591 186.875 63.2726 187.045 64.748 187.896C66.1667 188.748 69.6282 188.748 70.1957 188.691C70.7631 188.577 71.6711 188.748 71.9548 187.215C72.2953 185.229 69.004 182.222 68.0393 181.144C67.4151 180.519 67.1881 179.555 67.0179 178.817ZM59.5841 88.8168C59.4138 89.668 59.2436 90.5192 59.0166 91.3704C58.9598 91.6541 58.9031 91.9378 58.6194 92.1081C58.6194 89.895 58.5626 87.6818 58.3924 85.5255C58.5059 85.412 58.7329 85.5822 58.8463 85.7525C59.0166 86.2064 59.2436 86.6037 59.4138 87.0576C59.4706 87.2279 59.5841 87.3981 59.6408 87.6251C59.7543 87.9656 59.6408 88.4195 59.5841 88.8168ZM60.3218 109.87C60.265 109.586 60.2083 109.302 60.1515 109.075C60.2083 109.189 60.2083 109.359 60.265 109.473C60.265 109.586 60.3218 109.7 60.3218 109.87ZM40.1767 58.1736C40.1767 58.4006 40.1767 58.6276 40.1767 58.8545C40.12 58.5141 40.12 58.2871 40.1767 58.1736ZM32.8564 91.0299C32.7996 91.5406 32.6294 92.0513 32.5159 92.5621C32.3457 93.5268 32.4592 94.4914 32.2889 95.4561C32.2889 95.5696 32.1754 95.6831 32.0619 95.6264C32.0619 94.6617 32.0052 93.6402 32.0052 92.6755C32.0052 92.1648 32.0052 91.6541 32.0052 91.1434C32.0619 90.4624 32.2322 89.7815 32.2322 89.0438C32.2322 88.1926 31.9484 87.3414 32.2889 86.6037C32.5159 87.6818 32.6861 88.8168 32.7996 89.9517C32.8564 90.2922 32.8564 90.6327 32.8564 91.0299ZM59.8678 108.054C59.8678 108.054 59.9245 108.281 59.9813 108.565C59.9813 108.394 59.9245 108.224 59.8678 108.054Z" fill="black"/>
</g>
<path d="M70.88 17.575H68.045V20.485H66.065V17.575H63.23V15.745H66.065V12.835H68.045V15.745H70.88V17.575ZM72.6474 13V11.065H76.2624V22H74.1024V13H72.6474ZM78.337 16.39C78.337 14.66 78.647 13.305 79.267 12.325C79.897 11.345 80.937 10.855 82.387 10.855C83.837 10.855 84.872 11.345 85.492 12.325C86.122 13.305 86.437 14.66 86.437 16.39C86.437 18.13 86.122 19.495 85.492 20.485C84.872 21.475 83.837 21.97 82.387 21.97C80.937 21.97 79.897 21.475 79.267 20.485C78.647 19.495 78.337 18.13 78.337 16.39ZM84.367 16.39C84.367 15.65 84.317 15.03 84.217 14.53C84.127 14.02 83.937 13.605 83.647 13.285C83.367 12.965 82.947 12.805 82.387 12.805C81.827 12.805 81.402 12.965 81.112 13.285C80.832 13.605 80.642 14.02 80.542 14.53C80.452 15.03 80.407 15.65 80.407 16.39C80.407 17.15 80.452 17.79 80.542 18.31C80.632 18.82 80.822 19.235 81.112 19.555C81.402 19.865 81.827 20.02 82.387 20.02C82.947 20.02 83.372 19.865 83.662 19.555C83.952 19.235 84.142 18.82 84.232 18.31C84.322 17.79 84.367 17.15 84.367 16.39Z" fill="white"/>
<defs>
<filter id="filter0_d_296_287" x="29.8655" y="13.8462" width="28.2017" height="15.8052" filterUnits="userSpaceOnUse" color-interpolation-filters="sRGB">
<feFlood flood-opacity="0" result="BackgroundImageFix"/>
<feColorMatrix in="SourceAlpha" type="matrix" values="0 0 0 0 0 0 0 0 0 0 0 0 0 0 0 0 0 0 127 0" result="hardAlpha"/>
<feOffset dy="1"/>
<feGaussianBlur stdDeviation="0.5"/>
<feComposite in2="hardAlpha" operator="out"/>
<feColorMatrix type="matrix" values="0 0 0 0 0 0 0 0 0 0 0 0 0 0 0 0 0 0 0.1 0"/>
<feBlend mode="normal" in2="BackgroundImageFix" result="effect1_dropShadow_296_287"/>
<feBlend mode="normal" in="SourceGraphic" in2="effect1_dropShadow_296_287" result="shape"/>
</filter>
<filter id="filter1_d_296_287" x="53.1191" y="31.0121" width="30.4481" height="17.5248" filterUnits="userSpaceOnUse" color-interpolation-filters="sRGB">
<feFlood flood-opacity="0" result="BackgroundImageFix"/>
<feColorMatrix in="SourceAlpha" type="matrix" values="0 0 0 0 0 0 0 0 0 0 0 0 0 0 0 0 0 0 127 0" result="hardAlpha"/>
<feOffset dy="1"/>
<feGaussianBlur stdDeviation="0.5"/>
<feComposite in2="hardAlpha" operator="out"/>
<feColorMatrix type="matrix" values="0 0 0 0 0 0 0 0 0 0 0 0 0 0 0 0 0 0 0.1 0"/>
<feBlend mode="normal" in2="BackgroundImageFix" result="effect1_dropShadow_296_287"/>
<feBlend mode="normal" in="SourceGraphic" in2="effect1_dropShadow_296_287" result="shape"/>
</filter>
<linearGradient id="paint0_linear_296_287" x1="44.7179" y1="41.0864" x2="44.2165" y2="50.4874" gradientUnits="userSpaceOnUse">
<stop stop-color="white"/>
<stop offset="1"/>
</linearGradient>
<linearGradient id="paint1_linear_296_287" x1="69.1593" y1="61.6454" x2="68.5754" y2="72.2152" gradientUnits="userSpaceOnUse">
<stop stop-color="white"/>
<stop offset="1"/>
</linearGradient>
<linearGradient id="paint2_linear_296_287" x1="21.3071" y1="61.185" x2="20.7518" y2="71.598" gradientUnits="userSpaceOnUse">
<stop stop-color="white"/>
<stop offset="1"/>
</linearGradient>
<clipPath id="clip0_296_287">
<rect width="90" height="90" rx="45" fill="white"/>
</clipPath>
</defs>
</svg>
